<svg version="1.2" xmlns="http://www.w3.org/2000/svg" viewBox="0 0 150 35" width="150" height="35"><defs><clipPath clipPathUnits="userSpaceOnUse" id="cp1"><path d="m0 0.5h150v34.5h-150z"/></clipPath></defs><style>.a{fill:#fff}</style><g clip-path="url(#cp1)"><path class="a" d="m0 18.4v-0.1c0-9.2 6.9-16.7 16.6-16.7 4-0.2 7.9 1.1 11 3.6 0.8 0.5 1.1 1.4 1.1 2.2 0 1.5-1.2 2.8-2.9 2.8q-0.9 0-1.6-0.5c-2.1-1.9-4.8-3-7.7-3-6 0-10.6 5.1-10.6 11.4v0.2c0 6.3 4.5 11.5 10.6 11.5 3 0 6-1.1 8.1-3.2 0.4-0.4 1.1-0.6 1.7-0.6 1.4 0 2.6 1.2 2.7 2.7 0 0.8-0.4 1.5-0.9 2-3.1 3-7.3 4.5-11.7 4.4-9.4-0.1-16.4-7.4-16.4-16.7z"/><path class="a" d="m31 27.4c0-5.3 4.2-7.9 10.1-7.9 2.2 0 4.3 0.4 6.5 1v-0.6c0-3.5-2.2-5.4-6-5.4-1.9 0-3.7 0.3-5.4 1-0.2 0.1-0.5 0.2-0.9 0.2-1.2 0-2.3-1-2.3-2.3 0-1 0.6-1.9 1.5-2.2 2.5-1 5.1-1.5 7.8-1.5 3.7 0 6.4 1 8.1 2.8 1.7 1.8 2.6 4.4 2.6 7.6v12c0 1.4-1.2 2.6-2.6 2.6h-0.1c-1.5 0.1-2.6-0.9-2.7-2.3 0 0 0 0 0-0.1v-0.9c-2 2.4-4.8 3.7-7.9 3.6-4.6 0-8.7-2.7-8.7-7.6zm16.7-1.7v-1.7c-1.8-0.6-3.7-1-5.6-1-3.5 0-5.7 1.5-5.7 4.1v0.1c0 2.4 2.1 3.7 4.7 3.7 3.8 0 6.6-2.1 6.6-5.2z"/><path class="a" d="m58.1 3.3c0-1.6 1.2-2.8 2.7-2.8 1.5 0 2.8 1.2 2.8 2.8v28.6c0 1.5-1.3 2.7-2.8 2.7-1.5 0-2.7-1.2-2.7-2.7v-28.6z"/><path class="a" d="m69.4 3.3c0-1.6 1.2-2.8 2.7-2.8 1.5 0 2.8 1.2 2.8 2.8v28.6c0 1.5-1.3 2.7-2.8 2.7-1.5 0-2.8-1.2-2.8-2.7z"/><path class="a" d="m83.3 3.3c0-0.6 0.5-1.1 1.1-1.2h12.4c3.9 0 7.1 1.2 9 3.2 1.6 1.6 2.4 3.7 2.4 6v0.1c0 5.5-4 8.6-9.4 9.3l9.2 11.9c0.1 0.3 0.3 0.5 0.3 0.8 0 0.7-0.5 1.2-1.2 1.2-0.5 0-0.8-0.2-1.1-0.6l-9.9-13h-10.4v12.4c0 0.6-0.5 1.2-1.2 1.2-0.6 0-1.1-0.5-1.2-1.1zm13.2 15.5c5.4 0 9.4-2.7 9.4-7.3v-0.1c0-4.4-3.4-7.1-9.2-7.1h-11v14.5z"/><path class="a" d="m111.4 27.6v-0.1c0-4.9 4.2-7.6 10.2-7.6 2.6 0 5.3 0.3 7.8 1v-1c0-4.8-2.8-7.2-7.7-7.2q-3.5 0-6.7 1.6c-0.2 0.1-0.3 0.1-0.5 0.2-0.5 0-1.1-0.5-1.1-1.1 0-0.5 0.3-0.8 0.6-1 2.5-1.1 5.1-1.8 7.7-1.8 3.2 0 5.8 0.9 7.5 2.6 1.7 1.8 2.5 4.2 2.4 6.7v13.7c0 0.6-0.5 1.1-1.1 1.1-0.6 0-1.2-0.4-1.2-1v-0.1-3c-2 3-5.3 4.6-8.9 4.5-4.4-0.1-9-2.6-9-7.5zm18-1.9v-2.7c-2.6-0.7-5.2-1.1-7.9-1.1-5 0-7.7 2.3-7.7 5.5v0.1c0 3.4 3.2 5.5 6.8 5.5 4.7-0.1 8.8-3.1 8.8-7.3z"/><path class="a" d="m137.9 2.8c0-0.7 0.6-1.3 1.4-1.4 0 0 0 0 0.1 0 0.8 0 1.4 0.6 1.4 1.3v0.8c0 0.8-0.6 1.4-1.4 1.4-0.8 0-1.4-0.6-1.4-1.3 0 0 0 0 0-0.1v-0.7zm0.3 9.1c0-0.6 0.4-1.2 1.1-1.2 0.6 0 1.1 0.5 1.1 1.1v0.1 21.6c0.1 0.6-0.3 1.1-1 1.1h-0.1c-0.6 0-1.1-0.4-1.1-1v-0.1z"/><path class="a" d="m147.8 1.7c0-0.6 0.4-1.1 1-1.1 0 0 0 0 0.1 0 0.7 0 1.2 0.5 1.2 1.1v31.9c0.1 0.6-0.4 1-1 1.1h-0.1c-0.6 0-1.1-0.4-1.1-1v-0.1-31.9z"/></g></svg>